<mxfile host="Electron" modified="2023-07-05T17:28:24.629Z" agent="Mozilla/5.0 (Windows NT 10.0; Win64; x64) AppleWebKit/537.36 (KHTML, like Gecko) draw.io/21.2.1 Chrome/112.0.5615.87 Electron/24.1.2 Safari/537.36" etag="qYGRZJELFPnivxd1pC4X" version="21.2.1" type="device">
  <diagram name="Strona-1" id="0zV3-vofhPhSTLBoXuGX">
    <mxGraphModel dx="1195" dy="697" grid="1" gridSize="10" guides="1" tooltips="1" connect="1" arrows="1" fold="1" page="1" pageScale="1" pageWidth="827" pageHeight="1169" math="0" shadow="0">
      <root>
        <mxCell id="0" />
        <mxCell id="1" parent="0" />
        <mxCell id="hyV7norHWO8hqrAYdmVu-15" style="edgeStyle=orthogonalEdgeStyle;rounded=0;orthogonalLoop=1;jettySize=auto;html=1;startArrow=classic;startFill=1;" edge="1" parent="1" source="hyV7norHWO8hqrAYdmVu-1" target="hyV7norHWO8hqrAYdmVu-2">
          <mxGeometry relative="1" as="geometry" />
        </mxCell>
        <mxCell id="hyV7norHWO8hqrAYdmVu-17" style="edgeStyle=orthogonalEdgeStyle;rounded=0;orthogonalLoop=1;jettySize=auto;html=1;" edge="1" parent="1" source="hyV7norHWO8hqrAYdmVu-1" target="hyV7norHWO8hqrAYdmVu-5">
          <mxGeometry relative="1" as="geometry" />
        </mxCell>
        <mxCell id="hyV7norHWO8hqrAYdmVu-33" style="edgeStyle=orthogonalEdgeStyle;rounded=0;orthogonalLoop=1;jettySize=auto;html=1;startArrow=classic;startFill=1;" edge="1" parent="1" source="hyV7norHWO8hqrAYdmVu-1" target="hyV7norHWO8hqrAYdmVu-10">
          <mxGeometry relative="1" as="geometry" />
        </mxCell>
        <mxCell id="hyV7norHWO8hqrAYdmVu-36" style="edgeStyle=orthogonalEdgeStyle;rounded=0;orthogonalLoop=1;jettySize=auto;html=1;startArrow=classic;startFill=1;" edge="1" parent="1" source="hyV7norHWO8hqrAYdmVu-1" target="hyV7norHWO8hqrAYdmVu-35">
          <mxGeometry relative="1" as="geometry" />
        </mxCell>
        <mxCell id="hyV7norHWO8hqrAYdmVu-1" value="Shop" style="rounded=0;whiteSpace=wrap;html=1;strokeWidth=3;" vertex="1" parent="1">
          <mxGeometry x="354" y="370" width="120" height="60" as="geometry" />
        </mxCell>
        <mxCell id="hyV7norHWO8hqrAYdmVu-14" style="edgeStyle=orthogonalEdgeStyle;rounded=0;orthogonalLoop=1;jettySize=auto;html=1;startArrow=classic;startFill=1;" edge="1" parent="1" source="hyV7norHWO8hqrAYdmVu-2" target="hyV7norHWO8hqrAYdmVu-3">
          <mxGeometry relative="1" as="geometry" />
        </mxCell>
        <mxCell id="hyV7norHWO8hqrAYdmVu-34" style="edgeStyle=orthogonalEdgeStyle;rounded=0;orthogonalLoop=1;jettySize=auto;html=1;startArrow=classic;startFill=1;" edge="1" parent="1" source="hyV7norHWO8hqrAYdmVu-2" target="hyV7norHWO8hqrAYdmVu-6">
          <mxGeometry relative="1" as="geometry" />
        </mxCell>
        <mxCell id="hyV7norHWO8hqrAYdmVu-2" value="Farm" style="rounded=0;whiteSpace=wrap;html=1;" vertex="1" parent="1">
          <mxGeometry x="354" y="260" width="120" height="60" as="geometry" />
        </mxCell>
        <mxCell id="hyV7norHWO8hqrAYdmVu-11" style="edgeStyle=orthogonalEdgeStyle;rounded=0;orthogonalLoop=1;jettySize=auto;html=1;startArrow=classic;startFill=1;" edge="1" parent="1" source="hyV7norHWO8hqrAYdmVu-3" target="hyV7norHWO8hqrAYdmVu-10">
          <mxGeometry relative="1" as="geometry" />
        </mxCell>
        <mxCell id="hyV7norHWO8hqrAYdmVu-12" style="edgeStyle=orthogonalEdgeStyle;rounded=0;orthogonalLoop=1;jettySize=auto;html=1;startArrow=classic;startFill=1;" edge="1" parent="1" source="hyV7norHWO8hqrAYdmVu-3" target="hyV7norHWO8hqrAYdmVu-6">
          <mxGeometry relative="1" as="geometry" />
        </mxCell>
        <mxCell id="hyV7norHWO8hqrAYdmVu-13" style="edgeStyle=orthogonalEdgeStyle;rounded=0;orthogonalLoop=1;jettySize=auto;html=1;startArrow=classic;startFill=1;" edge="1" parent="1" source="hyV7norHWO8hqrAYdmVu-3" target="hyV7norHWO8hqrAYdmVu-4">
          <mxGeometry relative="1" as="geometry" />
        </mxCell>
        <mxCell id="hyV7norHWO8hqrAYdmVu-3" value="Playground" style="rounded=0;whiteSpace=wrap;html=1;" vertex="1" parent="1">
          <mxGeometry x="354" y="170" width="120" height="60" as="geometry" />
        </mxCell>
        <mxCell id="hyV7norHWO8hqrAYdmVu-4" value="Clowns" style="rounded=0;whiteSpace=wrap;html=1;" vertex="1" parent="1">
          <mxGeometry x="354" y="80" width="120" height="60" as="geometry" />
        </mxCell>
        <mxCell id="hyV7norHWO8hqrAYdmVu-19" style="edgeStyle=orthogonalEdgeStyle;rounded=0;orthogonalLoop=1;jettySize=auto;html=1;startArrow=classic;startFill=1;" edge="1" parent="1" source="hyV7norHWO8hqrAYdmVu-5" target="hyV7norHWO8hqrAYdmVu-9">
          <mxGeometry relative="1" as="geometry" />
        </mxCell>
        <mxCell id="hyV7norHWO8hqrAYdmVu-20" style="edgeStyle=orthogonalEdgeStyle;rounded=0;orthogonalLoop=1;jettySize=auto;html=1;startArrow=classic;startFill=1;" edge="1" parent="1" source="hyV7norHWO8hqrAYdmVu-5" target="hyV7norHWO8hqrAYdmVu-18">
          <mxGeometry relative="1" as="geometry" />
        </mxCell>
        <mxCell id="hyV7norHWO8hqrAYdmVu-22" style="edgeStyle=orthogonalEdgeStyle;rounded=0;orthogonalLoop=1;jettySize=auto;html=1;startArrow=classic;startFill=1;" edge="1" parent="1" source="hyV7norHWO8hqrAYdmVu-5" target="hyV7norHWO8hqrAYdmVu-8">
          <mxGeometry relative="1" as="geometry" />
        </mxCell>
        <mxCell id="hyV7norHWO8hqrAYdmVu-5" value="Church" style="rounded=0;whiteSpace=wrap;html=1;" vertex="1" parent="1">
          <mxGeometry x="354" y="490" width="120" height="60" as="geometry" />
        </mxCell>
        <mxCell id="hyV7norHWO8hqrAYdmVu-6" value="Old house" style="rounded=0;whiteSpace=wrap;html=1;" vertex="1" parent="1">
          <mxGeometry x="200" y="170" width="120" height="60" as="geometry" />
        </mxCell>
        <mxCell id="hyV7norHWO8hqrAYdmVu-21" style="edgeStyle=orthogonalEdgeStyle;rounded=0;orthogonalLoop=1;jettySize=auto;html=1;startArrow=classic;startFill=1;" edge="1" parent="1" source="hyV7norHWO8hqrAYdmVu-7" target="hyV7norHWO8hqrAYdmVu-8">
          <mxGeometry relative="1" as="geometry" />
        </mxCell>
        <mxCell id="hyV7norHWO8hqrAYdmVu-7" value="Airport" style="rounded=0;whiteSpace=wrap;html=1;" vertex="1" parent="1">
          <mxGeometry x="60" y="370" width="120" height="60" as="geometry" />
        </mxCell>
        <mxCell id="hyV7norHWO8hqrAYdmVu-8" value="Jail" style="rounded=0;whiteSpace=wrap;html=1;" vertex="1" parent="1">
          <mxGeometry x="60" y="490" width="120" height="60" as="geometry" />
        </mxCell>
        <mxCell id="hyV7norHWO8hqrAYdmVu-25" style="edgeStyle=orthogonalEdgeStyle;rounded=0;orthogonalLoop=1;jettySize=auto;html=1;entryX=0.5;entryY=0;entryDx=0;entryDy=0;startArrow=classic;startFill=1;" edge="1" parent="1" source="hyV7norHWO8hqrAYdmVu-9" target="hyV7norHWO8hqrAYdmVu-23">
          <mxGeometry relative="1" as="geometry" />
        </mxCell>
        <mxCell id="hyV7norHWO8hqrAYdmVu-27" style="edgeStyle=orthogonalEdgeStyle;rounded=0;orthogonalLoop=1;jettySize=auto;html=1;startArrow=classic;startFill=1;" edge="1" parent="1" source="hyV7norHWO8hqrAYdmVu-9" target="hyV7norHWO8hqrAYdmVu-26">
          <mxGeometry relative="1" as="geometry" />
        </mxCell>
        <mxCell id="hyV7norHWO8hqrAYdmVu-9" value="Hell" style="rounded=0;whiteSpace=wrap;html=1;" vertex="1" parent="1">
          <mxGeometry x="354" y="585" width="120" height="60" as="geometry" />
        </mxCell>
        <mxCell id="hyV7norHWO8hqrAYdmVu-10" value="School" style="rounded=0;whiteSpace=wrap;html=1;" vertex="1" parent="1">
          <mxGeometry x="520" y="370" width="120" height="60" as="geometry" />
        </mxCell>
        <mxCell id="hyV7norHWO8hqrAYdmVu-29" style="edgeStyle=orthogonalEdgeStyle;rounded=0;orthogonalLoop=1;jettySize=auto;html=1;startArrow=classic;startFill=1;" edge="1" parent="1" source="hyV7norHWO8hqrAYdmVu-18" target="hyV7norHWO8hqrAYdmVu-28">
          <mxGeometry relative="1" as="geometry" />
        </mxCell>
        <mxCell id="hyV7norHWO8hqrAYdmVu-18" value="Heaven" style="rounded=0;whiteSpace=wrap;html=1;" vertex="1" parent="1">
          <mxGeometry x="500" y="585" width="120" height="60" as="geometry" />
        </mxCell>
        <mxCell id="hyV7norHWO8hqrAYdmVu-24" style="edgeStyle=orthogonalEdgeStyle;rounded=0;orthogonalLoop=1;jettySize=auto;html=1;startArrow=classic;startFill=1;" edge="1" parent="1" source="hyV7norHWO8hqrAYdmVu-23" target="hyV7norHWO8hqrAYdmVu-8">
          <mxGeometry relative="1" as="geometry" />
        </mxCell>
        <mxCell id="hyV7norHWO8hqrAYdmVu-31" style="edgeStyle=orthogonalEdgeStyle;rounded=0;orthogonalLoop=1;jettySize=auto;html=1;startArrow=classic;startFill=1;" edge="1" parent="1" source="hyV7norHWO8hqrAYdmVu-23" target="hyV7norHWO8hqrAYdmVu-28">
          <mxGeometry relative="1" as="geometry" />
        </mxCell>
        <mxCell id="hyV7norHWO8hqrAYdmVu-23" value="Castle" style="rounded=0;whiteSpace=wrap;html=1;" vertex="1" parent="1">
          <mxGeometry x="354" y="680" width="120" height="60" as="geometry" />
        </mxCell>
        <mxCell id="hyV7norHWO8hqrAYdmVu-26" value="Cave" style="rounded=0;whiteSpace=wrap;html=1;" vertex="1" parent="1">
          <mxGeometry x="200" y="585" width="120" height="60" as="geometry" />
        </mxCell>
        <mxCell id="hyV7norHWO8hqrAYdmVu-28" value="Mountains" style="rounded=0;whiteSpace=wrap;html=1;" vertex="1" parent="1">
          <mxGeometry x="500" y="680" width="120" height="60" as="geometry" />
        </mxCell>
        <mxCell id="hyV7norHWO8hqrAYdmVu-37" style="edgeStyle=orthogonalEdgeStyle;rounded=0;orthogonalLoop=1;jettySize=auto;html=1;startArrow=classic;startFill=1;" edge="1" parent="1" source="hyV7norHWO8hqrAYdmVu-35" target="hyV7norHWO8hqrAYdmVu-7">
          <mxGeometry relative="1" as="geometry" />
        </mxCell>
        <mxCell id="hyV7norHWO8hqrAYdmVu-35" value="Warehouse" style="rounded=0;whiteSpace=wrap;html=1;" vertex="1" parent="1">
          <mxGeometry x="210" y="370" width="120" height="60" as="geometry" />
        </mxCell>
      </root>
    </mxGraphModel>
  </diagram>
</mxfile>
